<svg xmlns="http://www.w3.org/2000/svg" width="24" height="24" viewBox="0 0 24 24">
  <g id="vuesax_outline_buildings-2" data-name="vuesax/outline/buildings-2" transform="translate(-492 -188)">
    <g id="buildings-2">
      <path id="Vector" d="M5.45,17.5H2.9A2.643,2.643,0,0,1,0,14.6V2.9A2.643,2.643,0,0,1,2.9,0H7.2a2.643,2.643,0,0,1,2.9,2.9V4.75a.75.75,0,0,1-1.5,0V2.9c0-1.02-.38-1.4-1.4-1.4H2.9c-1.02,0-1.4.38-1.4,1.4V14.6c0,1.02.38,1.4,1.4,1.4H5.45a.75.75,0,0,1,0,1.5Z" transform="translate(493.25 189.25)" fill="#292d32"/>
      <path id="Vector-2" data-name="Vector" d="M9.01,17.5H3.17A2.89,2.89,0,0,1,0,14.33V3.17A2.89,2.89,0,0,1,3.17,0H9.01a2.882,2.882,0,0,1,3.16,3.17V14.33A2.882,2.882,0,0,1,9.01,17.5ZM3.17,1.5c-1.2,0-1.67.47-1.67,1.67V14.33c0,1.2.47,1.67,1.67,1.67H9.01c1.19,0,1.66-.47,1.66-1.67V3.17c0-1.2-.47-1.67-1.66-1.67Z" transform="translate(497.95 193.25)" fill="#292d32"/>
      <path id="Vector-3" data-name="Vector" d="M7.2,17.5H4.72a.75.75,0,0,1,0-1.5H7.2c1.02,0,1.4-.38,1.4-1.4V2.9c0-1.02-.38-1.4-1.4-1.4H2.9c-1.02,0-1.4.38-1.4,1.4V4.75a.755.755,0,0,1-.75.75A.755.755,0,0,1,0,4.75V2.9A2.643,2.643,0,0,1,2.9,0H7.2a2.643,2.643,0,0,1,2.9,2.9V14.6A2.643,2.643,0,0,1,7.2,17.5Z" transform="translate(504.65 189.25)" fill="#292d32"/>
      <path id="Vector-4" data-name="Vector" d="M4.75,1.5h-4A.755.755,0,0,1,0,.75.755.755,0,0,1,.75,0h4A.755.755,0,0,1,5.5.75.755.755,0,0,1,4.75,1.5Z" transform="translate(501.25 198.25)" fill="#292d32"/>
      <path id="Vector-5" data-name="Vector" d="M4.75,1.5h-4A.755.755,0,0,1,0,.75.755.755,0,0,1,.75,0h4A.755.755,0,0,1,5.5.75.755.755,0,0,1,4.75,1.5Z" transform="translate(501.25 201.25)" fill="#292d32"/>
      <path id="Vector-6" data-name="Vector" d="M.75,4.5A.755.755,0,0,1,0,3.75v-3A.755.755,0,0,1,.75,0,.755.755,0,0,1,1.5.75v3A.755.755,0,0,1,.75,4.5Z" transform="translate(503.25 206.25)" fill="#292d32"/>
      <path id="Vector-7" data-name="Vector" d="M0,0H24V24H0Z" transform="translate(492 188)" fill="none" opacity="0"/>
    </g>
  </g>
</svg>
